# xmcd CD database file
#
# Track frame offsets:
#	150
#	19066
#	35129
#	54812
#	74183
#	89838
#	108426
#	126836
#	145000
#	163056
#	180381
#	198778
#	214881
#	233117
#	250568
#	266776
#	284738
#	302429
#	313701
#	328476
#
# Disc length: 4563 seconds
#
# Revision: 0
# Processed by: cddbd v1.5.2PL0 Copyright (c) Steve Scherf et al.
# Submitted via: CDex 1.70beta2
#
DISCID=3211d114
DTITLE=Misc - Salsa Mania 4 - CD 2
DYEAR=1900
DGENRE=Salsa
TTITLE0=Hécteor  Tricoche - Cómo decirle al Corazón
TTITLE1=Willie Rosario - Reconcilation
TTITLE2=Mario Feliciano - Qué hago contigo
TTITLE3=José Alberto "El Canario" - Amada Mía
TTITLE4=Lalo Rodriguez - Jamás Olvides
TTITLE5=Ray - Vida Loca
TTITLE6=Grupo Niche - Ganas
TTITLE7=Willie Soltero y la Mundial - Una Salsita
TTITLE8=Tito Rojas - Conjunto Sabroso
TTITLE9=Ray Cruz - Pepe Machete
TTITLE10=Don Perignon and La Puertorriquena - Demuéstrame que sabes
TTITLE11=Kim de los Santos - Ella tiene un Swing
TTITLE12=Alfredo de la Fé - Muneca
TTITLE13=Emot - Sólo
TTITLE14=Jimmy "El León" - Sólo sé que tiene nombre de Mujer
TTITLE15=Roberto Roena and Apollo Sound - Que te Toque
TTITLE16=Son Boricua - Cara de Payaso
TTITLE17=Bommayé - Pa´fricarse los pollos
TTITLE18=Luisito Carrión and Bongolandia - Merecumbé
TTITLE19=Wayne Gorbea - Nos vamos pa´la cima
EXTD=
EXTT0=
EXTT1=
EXTT2=
EXTT3=
EXTT4=
EXTT5=
EXTT6=
EXTT7=
EXTT8=
EXTT9=
EXTT10=
EXTT11=
EXTT12=
EXTT13=
EXTT14=
EXTT15=
EXTT16=
EXTT17=
EXTT18=
EXTT19=
PLAYORDER=
